<?xml version="1.0" encoding="utf-8"?>
<!-- Generator: Adobe Illustrator 23.0.3, SVG Export Plug-In . SVG Version: 6.00 Build 0)  -->
<svg version="1.1" id="Layer_1" xmlns="http://www.w3.org/2000/svg" xmlns:xlink="http://www.w3.org/1999/xlink" x="0px" y="0px"
	 viewBox="0 0 738 218.5" style="enable-background:new 0 0 738 218.5;" xml:space="preserve">
<style type="text/css">
	.st0{fill:none;}
</style>
<title>Asset 2</title>
<g>
	<g id="bg">
		<rect class="st0" width="395" height="218.5"/>
	</g>
	<g id="bg_1_">
		<rect x="395" y="0.1" class="st0" width="343" height="218.4"/>
	</g>
	<g id="graphic">
		<polygon points="91,114.5 81,143.9 93.4,143.9 104.2,114.5 		"/>
		<polygon points="76.2,143.9 65.9,114.5 52.1,114.5 63.2,143.9 		"/>
		<path d="M71.5,165.6l-1.2,3.7c-0.3,1-0.6,1.9-1,2.8c-0.3,0.7-0.8,1.4-1.3,2c-0.5,0.5-1.1,1-1.8,1.2c-0.9,0.3-1.9,0.5-3,0.4
			c-0.8,0-1.7-0.1-2.5-0.2c-0.8-0.2-1.8-0.3-2.7-0.4l-0.9-0.1v10.9l0.6,0.1c2.6,0.4,5.2,0.6,7.8,0.6c3,0,5.6-0.5,7.6-1.5
			c1.9-1,3.6-2.3,5-4s2.5-3.7,3.3-5.7c0.9-2,1.8-4.2,2.7-6.6l7.7-20.9H64.7L71.5,165.6z"/>
		<path d="M145.1,122.6c-2.2-2.8-4.9-5.2-8.1-6.8c-3.4-1.7-7.2-2.6-11-2.6c-7.1-0.1-13.8,2.9-18.4,8.2c-2.2,2.6-3.9,5.5-5,8.7
			c-1.2,3.4-1.8,6.9-1.8,10.5c0,1.1,0.1,2.2,0.1,3.3h49.6v-0.4c0.5-3.8,0.2-7.6-0.8-11.3C148.8,128.7,147.2,125.4,145.1,122.6z
			 M113.4,135.3c0.1-1.5,0.4-2.9,1-4.2c0.6-1.5,1.5-2.8,2.6-4c1.1-1.1,2.4-2,3.8-2.7c1.6-0.7,3.3-1,5-1s3.3,0.3,4.8,1
			c1.4,0.7,2.6,1.6,3.7,2.8c1,1.2,1.8,2.5,2.4,4c0.5,1.3,0.8,2.7,1,4.1L113.4,135.3z"/>
		<path d="M137.8,149.7c-0.9,2.6-2.3,4.6-4.2,5.9s-4.3,2-7.4,2c-2,0.1-3.9-0.3-5.7-1.1c-1.5-0.7-2.9-1.8-3.9-3.1
			c-1.1-1.3-1.9-2.9-2.4-4.5c-0.1-0.3-0.2-0.7-0.3-1h-12.5c0.2,1.2,0.6,2.5,1,3.7c1,3.2,2.7,6.2,4.9,8.7c2.2,2.5,5,4.4,8,5.7
			c3.4,1.4,7.1,2.1,10.8,2c2.7,0,5.5-0.4,8.1-1.2c2.5-0.7,4.9-1.9,7-3.4c4.4-3.2,7.4-7.9,8.5-13.2l0.2-0.9h-12L137.8,149.7z"/>
		<path d="M156,143.9h15.4l5.6-22.5l-10.9-18.5C164.6,109.2,159.4,130.1,156,143.9z"/>
		<path d="M154.6,149.6l-0.9,3.8c-0.5,2-1.1,6,0,8.9c0.9,2.4,3.7,5.8,6.9,5.8c2.6,0,4.9-0.8,5.7-3.5l2.8-11.2l1-3.8l0.4-1.7H155
			L154.6,149.6z"/>
		<path d="M213.3,147.9h-15.9l5.5,9.3c1,1.5,2,3,3.1,4.5c3.1,3.9,7.6,6.4,12.2,6.4c3.1,0,3.5-2.2,2.9-3.5L213.3,147.9z"/>
		<polygon points="190.8,99.3 168.8,99.3 195.1,143.8 211.4,143.8 		"/>
		<path d="M137.1,61.9l-2.2,22.6c0,1.1,0.5,2.4,2.5,5.7c0,0,3.5,4.9,3.8,5.2H189L168.9,52h-36.4l2,2.9
			C136.9,58.3,137.2,59.2,137.1,61.9z"/>
		<path d="M263,120.9c-2.3-2.5-5.1-4.4-8.3-5.7c-7.1-2.7-15-2.7-22.2,0c-3.1,1.3-5.9,3.2-8.3,5.7c-2.3,2.5-4,5.5-5.1,8.7
			c-1.2,3.5-1.8,7.2-1.8,10.9c0,1.1,0.1,2.3,0.2,3.4h12.7c-0.4-3.2-0.2-6.5,0.6-9.6c0.5-2,1.3-3.8,2.5-5.5c1.1-1.6,2.6-2.9,4.2-3.8
			c3.8-2,8.3-2,12.1,0c1.7,0.9,3.1,2.3,4.2,3.8c1.1,1.7,2,3.5,2.5,5.5c0.8,3.1,1,6.4,0.6,9.6h12.7c0.1-1.1,0.2-2.2,0.2-3.4
			c0-3.7-0.6-7.4-1.8-10.9C267.1,126.4,265.3,123.4,263,120.9z"/>
		<path d="M254,152.3c-1.1,1.6-2.6,2.9-4.2,3.9c-3.8,1.9-8.3,1.9-12.1,0c-1.7-1-3.1-2.3-4.2-3.9c-0.9-1.4-1.6-2.8-2.1-4.4h-13
			c0.3,1.2,0.6,2.4,1,3.6c1.1,3.2,2.8,6.2,5.1,8.7s5.1,4.4,8.3,5.7c7.1,2.7,15,2.7,22.2,0c3.1-1.3,5.9-3.2,8.3-5.7
			c2.3-2.5,4-5.4,5.1-8.6c0.4-1.2,0.7-2.4,1-3.6h-13C255.6,149.4,254.9,150.9,254,152.3z"/>
		<polygon points="311.7,114.5 299.2,114.5 291.9,143.9 302,143.9 305.2,131 308.4,143.9 318.7,143.9 		"/>
		<polygon points="330,114.5 322,143.9 333.8,143.9 342.9,114.5 		"/>
		<polygon points="283.5,166.5 296.4,166.5 301,147.9 277.8,147.9 		"/>
		<polygon points="280.9,114.5 267.5,114.5 276.5,143.9 288.6,143.9 		"/>
		<polygon points="314.1,166.5 326.6,166.5 332.5,147.9 309.4,147.9 		"/>
		<polygon points="146.3,112.1 162.3,99.4 141.3,99.4 132.6,112.1 		"/>
	</g>
	<g>
		<path d="M395,126.6h5.1l0.8,5.4h0.5c2.7-4.2,6.7-6.3,12-6.3c5.2,0,8.6,2.1,10.3,6.3h0.5c1.4-2,3.1-3.6,5.3-4.7
			c2.2-1.1,4.5-1.6,7-1.6c7.8,0,11.7,4,11.7,12v28.7h-6.7V139c0-2.9-0.6-4.9-1.9-6s-3-1.7-5.2-1.7c-2.7,0-4.9,1.1-6.7,3.2
			c-1.8,2.1-2.7,4.9-2.7,8.5v23.6h-6.7V139c0-2.9-0.6-4.9-1.8-6c-1.2-1.1-2.9-1.7-5.2-1.7c-1.7,0-3.3,0.5-4.8,1.4s-2.6,2.3-3.5,4.1
			s-1.3,3.8-1.3,6.2v23.6H395V126.6z"/>
		<path d="M453,179.7v-4.3h2.7c5.2,0,8.5-3,10.1-8.9l-15.4-39.8h7l7.4,19.9c0.7,1.9,1.5,4.2,2.5,7c0.9,2.8,1.6,4.6,1.9,5.5h0.4
			c0.3-0.9,0.7-2.5,1.4-4.8c0.7-2.4,1.5-4.9,2.3-7.7l6.4-19.9h6.7l-13.1,37.8c-1.8,5-3.8,9-6,11.7c-2.2,2.8-5.2,4.1-8.9,4.1
			C456.1,180.3,454.3,180.1,453,179.7z"/>
		<path d="M504.8,145l-20.5-30.4h8.7l15.5,23.8h0.4l15.4-23.8h8.3L512,145v21.5h-7.2V145z"/>
		<path d="M532.3,162.3c-3.1-3.4-4.7-8.6-4.7-15.8c0-7.1,1.6-12.4,4.7-15.8c3.1-3.4,7.9-5.1,14.3-5.1c5.8,0,10.1,1.5,12.9,4.6
			c2.9,3.1,4.3,8,4.3,14.7v3.3h-29.3c0.3,4.6,1.3,8,3.3,10.2c1.9,2.2,4.9,3.3,8.8,3.3c3.2,0,5.8-0.7,7.7-2.2c2-1.5,3-3.7,3-6.7h6.5
			c0,4.6-1.6,8.2-4.8,10.7s-7.3,3.7-12.4,3.7C540.3,167.4,535.5,165.7,532.3,162.3z M556.9,142.8c0-7.7-3.4-11.6-10.2-11.6
			c-3.8,0-6.6,0.9-8.5,2.7s-3,4.8-3.4,8.9L556.9,142.8L556.9,142.8z"/>
		<path d="M569.6,111.7h6.7v54.8h-6.7V111.7z"/>
		<path d="M583.3,111.7h6.7v54.8h-6.7V111.7z"/>
		<path d="M599.9,162.3c-3.1-3.4-4.6-8.6-4.6-15.7c0-7.1,1.5-12.3,4.6-15.7c3.1-3.4,7.7-5.1,13.8-5.1s10.7,1.7,13.8,5.1
			c3.1,3.4,4.6,8.6,4.6,15.7c0,7.1-1.5,12.3-4.6,15.7s-7.7,5.1-13.8,5.1C607.6,167.4,603,165.7,599.9,162.3z M622.5,158.3
			c1.8-2.3,2.7-6.2,2.7-11.5v-0.6c0-5.3-0.9-9.1-2.7-11.5c-1.8-2.3-4.7-3.5-8.8-3.5c-4,0-7,1.2-8.8,3.5s-2.7,6.2-2.7,11.5v0.6
			c0,5.3,0.9,9.1,2.7,11.5c1.8,2.3,4.7,3.5,8.8,3.5C617.7,161.9,620.6,160.7,622.5,158.3z"/>
		<path d="M632.2,126.6h6.9l6.1,22.6c0.4,1.6,0.8,3.3,1.3,5.3s0.8,3.3,1,4.1h0.4l2-9.4l5.2-22.6h8.1l5.5,22.6
			c0.4,1.6,0.7,3.3,1.2,5.3c0.4,2,0.7,3.3,0.9,4.1h0.4c0.2-0.8,0.5-2.1,0.9-4c0.5-1.9,0.9-3.7,1.4-5.4l6.1-22.6h6.5l-12,39.8h-7.3
			l-5.8-23.8l-1.8-8.2H659c-0.2,0.7-0.4,1.8-0.7,3.5s-0.7,3.2-1,4.7l-5.7,23.8h-7.3L632.2,126.6z"/>
	</g>
</g>
</svg>
